<svg xmlns="http://www.w3.org/2000/svg" xmlns:xlink="http://www.w3.org/1999/xlink" width="200" height="200" viewBox="0 0 200 200">
  <defs>
    <clipPath id="clip-path">
      <rect id="長方形_93" data-name="長方形 93" width="200" height="200" transform="translate(104 175)" fill="#fff"/>
    </clipPath>
    <clipPath id="clip-path-2">
      <rect id="長方形_301" data-name="長方形 301" width="120" height="180" fill="none"/>
    </clipPath>
  </defs>
  <g id="マスクグループ_176" data-name="マスクグループ 176" transform="translate(-104 -175)" clip-path="url(#clip-path)">
    <g id="グループ_274" data-name="グループ 274" transform="translate(144 185)">
      <g id="グループ_273" data-name="グループ 273" clip-path="url(#clip-path-2)">
        <rect id="長方形_300" data-name="長方形 300" width="16.036" height="78.111" rx="2.565" transform="translate(53.929 101.889)" fill="#7abf2b"/>
        <path id="パス_162" data-name="パス 162" d="M105.813,80.873c0,34.775-20.524,62.966-45.843,62.966S14.126,115.648,14.126,80.873,34.65,17.907,59.969,17.907,105.813,46.1,105.813,80.873" transform="translate(0.592 0.085)" fill="#5a47c6"/>
        <path id="パス_163" data-name="パス 163" d="M36.651,121.622c8.484-6.109,19.481-5.738,24.565.827s2.327,16.84-6.158,22.948-19.481,5.738-24.565-.827-2.327-16.839,6.158-22.948" transform="translate(1.171 0.559)" fill="#5a47c6"/>
        <path id="パス_164" data-name="パス 164" d="M17.392,72.471c10.252-2.547,20.283,1.82,22.4,9.754S35.321,98.657,25.068,101.2s-20.283-1.82-22.4-9.753S7.14,75.019,17.392,72.471" transform="translate(0.095 0.342)" fill="#5a47c6"/>
        <path id="パス_165" data-name="パス 165" d="M99.069,72.471c-10.252-2.547-20.283,1.82-22.4,9.754S81.14,98.657,91.393,101.2s20.283-1.82,22.4-9.753-4.474-16.432-14.726-18.979" transform="translate(3.195 0.342)" fill="#5a47c6"/>
        <path id="パス_166" data-name="パス 166" d="M84.315,121.622c-8.484-6.109-19.481-5.738-24.565.827s-2.327,16.84,6.158,22.948,19.481,5.738,24.565-.827,2.327-16.839-6.158-22.948" transform="translate(2.396 0.559)" fill="#5a47c6"/>
        <path id="パス_167" data-name="パス 167" d="M80.171,122.293c7.471,7.219,18.9,7.9,25.528,1.523s5.942-17.4-1.53-24.622-18.9-7.9-25.527-1.523-5.943,17.4,1.528,24.622" transform="translate(3.104 0.445)" fill="#6a54d3"/>
        <path id="パス_168" data-name="パス 168" d="M99.769,125.224c2.123,2.052,7.252.435,7.252.435s1.687-4.942-.437-6.994-5.37-2.247-7.252-.435-1.687,4.942.437,6.994" transform="translate(4.107 0.558)" fill="#dbd7ff"/>
        <path id="パス_169" data-name="パス 169" d="M107.214,121.356c2.928.657,6.392-3.332,6.392-3.332s-1.282-5.054-4.209-5.712-5.789.835-6.392,3.332,1.282,5.055,4.209,5.712" transform="translate(4.31 0.535)" fill="#dbd7ff"/>
        <path id="パス_170" data-name="パス 170" d="M102.448,126.3c.676,2.824-3.467,6.157-3.467,6.157s-5.239-1.245-5.915-4.069a4.953,4.953,0,0,1,3.467-6.158,5.146,5.146,0,0,1,5.915,4.07" transform="translate(3.892 0.582)" fill="#dbd7ff"/>
        <path id="パス_171" data-name="パス 171" d="M35.518,125.891c-7.471,7.219-18.9,7.9-25.528,1.523s-5.942-17.4,1.529-24.622,18.9-7.9,25.527-1.523,5.943,17.4-1.528,24.622" transform="translate(0.228 0.462)" fill="#6a54d3"/>
        <path id="パス_172" data-name="パス 172" d="M14.853,128.822c-2.123,2.052-7.252.435-7.252.435s-1.687-4.942.437-6.994,5.37-2.247,7.252-.435,1.687,4.942-.437,6.994" transform="translate(0.292 0.575)" fill="#dbd7ff"/>
        <path id="パス_173" data-name="パス 173" d="M7.451,124.954c-2.928.657-6.392-3.332-6.392-3.332s1.282-5.054,4.209-5.712,5.789.835,6.392,3.332-1.282,5.055-4.209,5.712" transform="translate(0.044 0.552)" fill="#dbd7ff"/>
        <path id="パス_174" data-name="パス 174" d="M12.174,129.9c-.676,2.824,3.467,6.157,3.467,6.157s5.239-1.245,5.915-4.069a4.953,4.953,0,0,0-3.467-6.158,5.146,5.146,0,0,0-5.915,4.07" transform="translate(0.507 0.599)" fill="#dbd7ff"/>
        <path id="パス_175" data-name="パス 175" d="M72.759,18.488c0,10.21-6.888,18.488-15.384,18.488S41.992,28.7,41.992,18.488,48.879,0,57.376,0,72.759,8.277,72.759,18.488" transform="translate(1.759)" fill="#5a47c6"/>
        <path id="パス_176" data-name="パス 176" d="M40.7,20.777C48.188,28,49.387,38.546,43.38,44.34s-16.946,4.637-24.433-2.582-8.685-17.769-2.678-23.563S33.216,13.558,40.7,20.777" transform="translate(0.521 0.069)" fill="#5a47c6"/>
        <path id="パス_177" data-name="パス 177" d="M72.511,20.11c-7.486,7.22-8.685,17.77-2.678,23.563s16.947,4.637,24.433-2.581,8.685-17.769,2.678-23.564S80,12.891,72.511,20.11" transform="translate(2.765 0.066)" fill="#5a47c6"/>
        <path id="パス_178" data-name="パス 178" d="M34.459,70.706c-7.471,7.219-18.9,7.9-25.528,1.523s-5.942-17.4,1.529-24.622,18.9-7.9,25.527-1.523,5.943,17.4-1.528,24.622" transform="translate(0.183 0.199)" fill="#7f61e0"/>
        <path id="パス_179" data-name="パス 179" d="M13.794,73.637c-2.123,2.052-7.252.435-7.252.435s-1.687-4.942.437-6.994,5.37-2.247,7.252-.435,1.687,4.942-.437,6.994" transform="translate(0.247 0.312)" fill="#dbd7ff"/>
        <path id="パス_180" data-name="パス 180" d="M6.392,69.769C3.464,70.426,0,66.437,0,66.437s1.282-5.054,4.209-5.712S10,61.56,10.6,64.057,9.32,69.112,6.392,69.769" transform="translate(0 0.289)" fill="#dbd7ff"/>
        <path id="パス_181" data-name="パス 181" d="M11.114,74.712c-.676,2.824,3.467,6.157,3.467,6.157S19.82,79.624,20.5,76.8a4.953,4.953,0,0,0-3.467-6.158,5.146,5.146,0,0,0-5.915,4.07" transform="translate(0.462 0.336)" fill="#dbd7ff"/>
        <path id="パス_182" data-name="パス 182" d="M82.171,70.706c7.471,7.219,18.9,7.9,25.528,1.523s5.942-17.4-1.53-24.622-18.9-7.9-25.527-1.523-5.943,17.4,1.528,24.622" transform="translate(3.187 0.199)" fill="#7f61e0"/>
        <path id="パス_183" data-name="パス 183" d="M101.769,73.637c2.123,2.052,7.252.435,7.252.435s1.687-4.942-.437-6.994-5.37-2.247-7.252-.435-1.687,4.942.437,6.994" transform="translate(4.191 0.312)" fill="#dbd7ff"/>
        <path id="パス_184" data-name="パス 184" d="M109.214,69.769c2.928.657,6.392-3.332,6.392-3.332s-1.282-5.054-4.209-5.712-5.789.835-6.392,3.332,1.282,5.055,4.209,5.712" transform="translate(4.394 0.289)" fill="#dbd7ff"/>
        <path id="パス_185" data-name="パス 185" d="M104.448,74.712c.676,2.824-3.467,6.157-3.467,6.157s-5.239-1.245-5.915-4.069a4.953,4.953,0,0,1,3.467-6.158,5.146,5.146,0,0,1,5.915,4.07" transform="translate(3.976 0.336)" fill="#dbd7ff"/>
        <path id="パス_186" data-name="パス 186" d="M75.892,144.616c0,10.2-7.59,18.469-16.954,18.469s-16.953-8.268-16.953-18.469,7.59-18.469,16.953-18.469,16.954,8.268,16.954,18.469" transform="translate(1.759 0.601)" fill="#7f61e0"/>
        <path id="パス_187" data-name="パス 187" d="M63.061,160.665c0,2.9-4.815,5.248-4.815,5.248s-4.814-2.349-4.814-5.248a4.832,4.832,0,1,1,9.628,0" transform="translate(2.238 0.741)" fill="#dbd7ff"/>
        <path id="パス_188" data-name="パス 188" d="M55.09,163.121c-1.591,2.46-6.965,2-6.965,2s-2.8-4.451-1.2-6.91a5.258,5.258,0,0,1,6.965-2,4.861,4.861,0,0,1,1.2,6.91" transform="translate(1.945 0.742)" fill="#dbd7ff"/>
        <path id="パス_189" data-name="パス 189" d="M61.809,163.121c1.591,2.46,6.965,2,6.965,2s2.8-4.451,1.2-6.91a5.258,5.258,0,0,0-6.965-2,4.861,4.861,0,0,0-1.2,6.91" transform="translate(2.551 0.742)" fill="#dbd7ff"/>
        <path id="パス_190" data-name="パス 190" d="M75.225,93.678c0,10.2-7.59,18.469-16.954,18.469s-16.953-8.268-16.953-18.469,7.59-18.469,16.953-18.469,16.954,8.268,16.954,18.469" transform="translate(1.731 0.359)" fill="#8d6be8"/>
        <path id="パス_191" data-name="パス 191" d="M62.4,109.727c0,2.9-4.815,5.248-4.815,5.248s-4.814-2.349-4.814-5.248a4.832,4.832,0,1,1,9.628,0" transform="translate(2.211 0.498)" fill="#dbd7ff"/>
        <path id="パス_192" data-name="パス 192" d="M54.423,112.183c-1.591,2.46-6.965,2-6.965,2s-2.8-4.451-1.2-6.91a5.258,5.258,0,0,1,6.965-2,4.861,4.861,0,0,1,1.2,6.91" transform="translate(1.917 0.499)" fill="#dbd7ff"/>
        <path id="パス_193" data-name="パス 193" d="M61.143,112.183c1.591,2.46,6.965,2,6.965,2s2.8-4.451,1.2-6.91a5.258,5.258,0,0,0-6.965-2,4.861,4.861,0,0,0-1.2,6.91" transform="translate(2.523 0.499)" fill="#dbd7ff"/>
        <path id="パス_194" data-name="パス 194" d="M74.559,43.654c0,10.2-7.59,18.469-16.954,18.469S40.653,53.854,40.653,43.654s7.59-18.469,16.953-18.469,16.954,8.268,16.954,18.469" transform="translate(1.703 0.12)" fill="#8d6be8"/>
        <path id="パス_195" data-name="パス 195" d="M61.728,59.7c0,2.9-4.815,5.248-4.815,5.248S52.1,62.6,52.1,59.7a4.832,4.832,0,1,1,9.628,0" transform="translate(2.183 0.26)" fill="#dbd7ff"/>
        <path id="パス_196" data-name="パス 196" d="M53.757,62.159c-1.591,2.46-6.965,2-6.965,2s-2.8-4.451-1.2-6.91a5.258,5.258,0,0,1,6.965-2,4.861,4.861,0,0,1,1.2,6.91" transform="translate(1.889 0.26)" fill="#dbd7ff"/>
        <path id="パス_197" data-name="パス 197" d="M60.476,62.159c1.591,2.46,6.965,2,6.965,2s2.8-4.451,1.2-6.91a5.258,5.258,0,0,0-6.965-2,4.861,4.861,0,0,0-1.2,6.91" transform="translate(2.495 0.26)" fill="#dbd7ff"/>
      </g>
    </g>
  </g>
</svg>
