<svg xmlns="http://www.w3.org/2000/svg" xmlns:xlink="http://www.w3.org/1999/xlink" width="200" height="200" viewBox="0 0 200 200">
  <defs>
    <clipPath id="clip-path">
      <rect id="長方形_93" data-name="長方形 93" width="200" height="200" transform="translate(104 177)" fill="#fff"/>
    </clipPath>
    <clipPath id="clip-path-2">
      <rect id="長方形_296" data-name="長方形 296" width="170" height="170" fill="none"/>
    </clipPath>
  </defs>
  <g id="マスクグループ_172" data-name="マスクグループ 172" transform="translate(-104 -177)" clip-path="url(#clip-path)">
    <g id="グループ_265" data-name="グループ 265" transform="translate(119 192)">
      <g id="グループ_264" data-name="グループ 264" clip-path="url(#clip-path-2)">
        <path id="パス_95" data-name="パス 95" d="M83.238,0,75.4,19.327,67.557,0C54.665,4.078,45.172,18.358,45.172,39.8,45.172,65.4,58.7,91.51,75.4,91.51S105.624,65.4,105.624,39.8c0-21.443-9.494-35.723-22.385-39.8" transform="translate(9.602)" fill="#ffb6e2"/>
        <path id="パス_96" data-name="パス 96" d="M4.85,46.007,20.066,59.751,0,61.549c-.263,14.037,9.836,27.859,29.4,34.486,23.365,7.912,51.373,2.566,56.531-13.978S71.456,44.031,48.091,36.119C28.522,29.494,12.555,34.49,4.85,46.007" transform="translate(0 8.741)" fill="#ffb6e2"/>
        <path id="パス_97" data-name="パス 97" d="M23.749,140.92l17.244-10.833-4.558,20.438c12.73,4.6,28.465-1.14,40.559-18.487,14.44-20.712,18.218-50.122,4.712-60.348S42.528,74.3,28.088,95.009c-12.094,17.347-12.468,34.717-4.339,45.912" transform="translate(3.875 17.955)" fill="#ffb6e2"/>
        <path id="パス_98" data-name="パス 98" d="M116.356,150.525,111.8,130.087l17.244,10.833c8.13-11.2,7.756-28.565-4.337-45.912C110.264,74.3,84.591,61.464,71.085,71.69s-9.728,39.637,4.712,60.349c12.094,17.347,27.831,23.084,40.559,18.487" transform="translate(13.333 17.954)" fill="#ffb6e2"/>
        <path id="パス_99" data-name="パス 99" d="M155.4,61.549l-20.061-1.8,15.215-13.743c-7.7-11.517-23.672-16.513-43.24-9.888-23.365,7.912-43.01,29.391-37.85,45.937S102.635,103.946,126,96.035c19.568-6.627,29.668-20.449,29.4-34.486" transform="translate(14.59 8.741)" fill="#ffb6e2"/>
        <path id="パス_100" data-name="パス 100" d="M78.414,54.467a7.057,7.057,0,1,1-7.051-7.348,7.2,7.2,0,0,1,7.051,7.348" transform="translate(13.671 12.422)" fill="#fff5bd"/>
        <path id="パス_101" data-name="パス 101" d="M78.414,86.867a7.057,7.057,0,1,1-7.051-7.348,7.2,7.2,0,0,1,7.051,7.348" transform="translate(13.671 20.964)" fill="#fff5bd"/>
        <path id="パス_102" data-name="パス 102" d="M60.859,56.2a7.521,7.521,0,0,1,2.582,10.038,6.9,6.9,0,0,1-9.633,2.689,7.518,7.518,0,0,1-2.582-10.037,6.9,6.9,0,0,1,9.633-2.69" transform="translate(10.688 14.558)" fill="#fff5bd"/>
        <path id="パス_103" data-name="パス 103" d="M88.917,72.4A7.521,7.521,0,0,1,91.5,82.442a6.9,6.9,0,0,1-9.633,2.689,7.518,7.518,0,0,1-2.582-10.037,6.9,6.9,0,0,1,9.633-2.69" transform="translate(16.653 18.829)" fill="#fff5bd"/>
        <path id="パス_104" data-name="パス 104" d="M53.808,72.4a6.9,6.9,0,0,1,9.633,2.69,7.518,7.518,0,0,1-2.582,10.037,6.9,6.9,0,0,1-9.633-2.689A7.521,7.521,0,0,1,53.808,72.4" transform="translate(10.688 18.829)" fill="#fff5bd"/>
        <path id="パス_105" data-name="パス 105" d="M81.866,56.2a6.9,6.9,0,0,1,9.633,2.69,7.518,7.518,0,0,1-2.582,10.037,6.9,6.9,0,0,1-9.633-2.689A7.521,7.521,0,0,1,81.866,56.2" transform="translate(16.653 14.558)" fill="#fff5bd"/>
        <line id="線_29" data-name="線 29" y2="40.591" transform="translate(84.698 67.94)" fill="none" stroke="#fff5bd" stroke-miterlimit="10" stroke-width="3.323"/>
        <line id="線_30" data-name="線 30" x2="33.733" y2="20.295" transform="translate(67.832 78.088)" fill="none" stroke="#fff5bd" stroke-miterlimit="10" stroke-width="3.323"/>
        <line id="線_31" data-name="線 31" y1="20.295" x2="33.733" transform="translate(67.832 78.088)" fill="none" stroke="#fff5bd" stroke-miterlimit="10" stroke-width="3.323"/>
      </g>
    </g>
  </g>
</svg>
