<svg xmlns="http://www.w3.org/2000/svg" xmlns:xlink="http://www.w3.org/1999/xlink" width="25" height="25" viewBox="0 0 25 25">
  <defs>
    <clipPath id="clip-path">
      <rect id="長方形_24" data-name="長方形 24" width="25" height="25" fill="none"/>
    </clipPath>
  </defs>
  <g id="マスクグループ_4" data-name="マスクグループ 4" clip-path="url(#clip-path)">
    <path id="Icon_awesome-search" data-name="Icon awesome-search" d="M22.945,20.114l-4.53-4.53a1.09,1.09,0,0,0-.772-.318H16.9A9.446,9.446,0,1,0,15.266,16.9v.741a1.09,1.09,0,0,0,.318.772l4.53,4.53a1.086,1.086,0,0,0,1.54,0l1.286-1.286a1.1,1.1,0,0,0,0-1.545ZM9.45,15.266A5.816,5.816,0,1,1,15.266,9.45,5.812,5.812,0,0,1,9.45,15.266Z" transform="translate(1.042 0.247)" fill="none" stroke="#000" stroke-width="1"/>
  </g>
</svg>
