<svg xmlns="http://www.w3.org/2000/svg" xmlns:xlink="http://www.w3.org/1999/xlink" width="200" height="200" viewBox="0 0 200 200">
  <defs>
    <clipPath id="clip-path">
      <rect id="長方形_93" data-name="長方形 93" width="200" height="200" transform="translate(104 175)" fill="#fff"/>
    </clipPath>
    <clipPath id="clip-path-2">
      <rect id="長方形_302" data-name="長方形 302" width="170" height="170" fill="none"/>
    </clipPath>
  </defs>
  <g id="マスクグループ_177" data-name="マスクグループ 177" transform="translate(-104 -175)" clip-path="url(#clip-path)">
    <g id="グループ_276" data-name="グループ 276" transform="translate(134 202)">
      <g id="グループ_275" data-name="グループ 275" transform="translate(-15 -12)" clip-path="url(#clip-path-2)">
        <path id="パス_198" data-name="パス 198" d="M110.139,23.683A14.957,14.957,0,0,0,95.364,8.552a14.448,14.448,0,0,0-4.352.669,18.012,18.012,0,0,0-31.494.093,14.431,14.431,0,0,0-4.626-.761A14.956,14.956,0,0,0,40.116,23.683a15.371,15.371,0,0,0,1.494,6.635C42.8,41.135,65.957,92.757,75.288,92.757c9.58,0,33.727-54.406,33.727-63.215v-.06a15.407,15.407,0,0,0,1.126-5.8" transform="translate(8.859)" fill="#dd3c4b"/>
        <path id="パス_199" data-name="パス 199" d="M33.708,28.178a14.706,14.706,0,0,0-18.619,9.715,15.455,15.455,0,0,0-.724,4.444C8.455,43.344,3.095,48.021.944,54.8-1.22,61.621.463,68.673,4.72,73.037A15.311,15.311,0,0,0,12.07,96.374a14.4,14.4,0,0,0,6.623.6c10.415,2.18,65.515-4.417,68.4-13.5,2.959-9.33-40.108-49.66-48.29-52.382l-.056-.018a14.661,14.661,0,0,0-5.037-2.888" transform="translate(0 6.863)" fill="#dd3c4b"/>
        <path id="パス_200" data-name="パス 200" d="M15.174,104.413a15.366,15.366,0,0,0,3.269,21.134,14.576,14.576,0,0,0,3.9,2.079,18.162,18.162,0,0,0,7.428,16.923c5.666,4.216,12.735,4.756,18.1,1.959a14.908,14.908,0,0,0,3.306,3.4,14.553,14.553,0,0,0,20.638-3.347,15.26,15.26,0,0,0,2.6-6.267c5.243-9.47,16.143-65.169,8.595-70.786C75.267,63.742,24.5,93.223,19.445,100.351l-.033.049a14.87,14.87,0,0,0-4.239,4.013" transform="translate(2.727 17.202)" fill="#dd3c4b"/>
        <path id="パス_201" data-name="パス 201" d="M79.062,146.521A14.553,14.553,0,0,0,99.7,149.869a14.969,14.969,0,0,0,3.138-3.16c5.358,2.743,12.38,2.187,18.013-2.005a18.151,18.151,0,0,0,7.413-17.026,14.621,14.621,0,0,0,4.179-2.169,15.368,15.368,0,0,0,3.269-21.135,14.816,14.816,0,0,0-5.018-4.467c-7.174-8.034-55.537-35.861-63.085-30.245-7.751,5.767,3.943,64.317,9,71.444.011.016.024.031.035.048a15.255,15.255,0,0,0,2.417,5.368" transform="translate(14.36 17.241)" fill="#dd3c4b"/>
        <path id="パス_202" data-name="パス 202" d="M142.86,95.848a15.321,15.321,0,0,0,7.522-23.1c4.2-4.371,5.855-11.38,3.7-18.162-2.165-6.82-7.573-11.511-13.523-12.48a15.413,15.413,0,0,0-.723-4.741,14.618,14.618,0,0,0-24.318-6.21c-9.678,4.506-50.468,43.007-47.584,52.094,2.961,9.33,60.953,16.035,69.135,13.312l.055-.02a14.4,14.4,0,0,0,5.733-.7" transform="translate(14.971 6.731)" fill="#dd3c4b"/>
        <path id="パス_203" data-name="パス 203" d="M80.037,91.186c.04-.259-23.877-15.134-26.108-16.925C36.2,60.032,21.914,40.43,14.475,18.588l4.69-1.676c-1.828.653,16.436,28.9,18.454,31.313C49.113,61.94,64.849,73.287,82.167,77.56c0,0-2.127,13.608-2.129,13.627" transform="translate(3.197 4.231)" fill="#fd3"/>
        <path id="パス_204" data-name="パス 204" d="M75.983,71.589a7.041,7.041,0,1,1-7.038-7.207,7.124,7.124,0,0,1,7.038,7.207" transform="translate(13.671 16.106)" fill="#fd3"/>
        <path id="パス_205" data-name="パス 205" d="M23.453,15.274A7.633,7.633,0,0,1,15.912,23a7.632,7.632,0,0,1-7.541-7.722,7.632,7.632,0,0,1,7.541-7.722,7.633,7.633,0,0,1,7.541,7.722" transform="translate(1.849 1.889)" fill="#dd3c4b"/>
        <path id="パス_206" data-name="パス 206" d="M18.838,29.584a5.029,5.029,0,1,1-5.027-5.148,5.089,5.089,0,0,1,5.027,5.148" transform="translate(1.94 6.113)" fill="#fd3"/>
        <path id="パス_207" data-name="パス 207" d="M22.956,38.232a5.029,5.029,0,1,1-5.027-5.148,5.089,5.089,0,0,1,5.027,5.148" transform="translate(2.849 8.276)" fill="#fd3"/>
        <path id="パス_208" data-name="パス 208" d="M29.133,46.468a5.029,5.029,0,1,1-5.027-5.147,5.09,5.09,0,0,1,5.027,5.147" transform="translate(4.213 10.337)" fill="#fd3"/>
        <path id="パス_209" data-name="パス 209" d="M43.546,41.115a5.029,5.029,0,1,1-5.027-5.148,5.089,5.089,0,0,1,5.027,5.148" transform="translate(7.396 8.997)" fill="#fd3"/>
        <path id="パス_210" data-name="パス 210" d="M32.839,23.819a5.029,5.029,0,1,1-5.027-5.148,5.089,5.089,0,0,1,5.027,5.148" transform="translate(5.031 4.671)" fill="#fd3"/>
        <path id="パス_211" data-name="パス 211" d="M37.369,32.467a5.029,5.029,0,1,1-5.027-5.148,5.089,5.089,0,0,1,5.027,5.148" transform="translate(6.032 6.834)" fill="#fd3"/>
      </g>
    </g>
  </g>
</svg>
