<svg xmlns="http://www.w3.org/2000/svg" xmlns:xlink="http://www.w3.org/1999/xlink" width="200" height="200" viewBox="0 0 200 200">
  <defs>
    <clipPath id="clip-path">
      <rect id="長方形_311" data-name="長方形 311" width="200" height="200" transform="translate(104 175)" fill="#fff"/>
    </clipPath>
    <clipPath id="clip-path-2">
      <rect id="長方形_310" data-name="長方形 310" width="170" height="170" fill="none"/>
    </clipPath>
  </defs>
  <g id="マスクグループ_182" data-name="マスクグループ 182" transform="translate(-104 -175)" clip-path="url(#clip-path)">
    <g id="グループ_287" data-name="グループ 287" transform="translate(125 196)">
      <g id="グループ_286" data-name="グループ 286" transform="translate(-6 -3)" clip-path="url(#clip-path-2)">
        <path id="パス_240" data-name="パス 240" d="M90,29.675c0,16.389-4.46,29.676-9.963,29.676s-9.962-13.287-9.962-29.676S74.534,0,80.036,0,90,13.286,90,29.675" transform="translate(4.964 0)" fill="#fb3"/>
        <path id="パス_241" data-name="パス 241" d="M90,133c0,16.389-4.46,29.676-9.963,29.676S70.074,149.393,70.074,133s4.46-29.676,9.962-29.676S90,116.615,90,133" transform="translate(4.964 7.32)" fill="#fb3"/>
        <path id="パス_242" data-name="パス 242" d="M63.308,31.385c8.2,14.194,10.975,27.931,6.21,30.682S54.247,55.541,46.053,41.348s-10.975-27.931-6.21-30.682,15.27,6.525,23.465,20.719" transform="translate(2.657 0.721)" fill="#fb3"/>
        <path id="パス_243" data-name="パス 243" d="M114.973,120.871c8.2,14.194,10.974,27.931,6.209,30.682s-15.271-6.526-23.465-20.719S86.742,102.9,91.508,100.152s15.27,6.525,23.465,20.719" transform="translate(6.317 7.06)" fill="#fb3"/>
        <path id="パス_244" data-name="パス 244" d="M41.348,46.052c14.194,8.2,23.47,18.7,20.719,23.465S45.579,71.5,31.385,63.308s-23.47-18.7-20.719-23.466,16.488-1.985,30.682,6.21" transform="translate(0.721 2.657)" fill="#fb3"/>
        <path id="パス_245" data-name="パス 245" d="M130.834,97.717c14.194,8.2,23.47,18.7,20.719,23.465s-16.488,1.985-30.682-6.21-23.47-18.7-20.719-23.465,16.488-1.985,30.682,6.21" transform="translate(7.06 6.317)" fill="#fb3"/>
        <path id="パス_246" data-name="パス 246" d="M29.676,70.073c16.389,0,29.676,4.46,29.676,9.963S46.065,90,29.676,90,0,85.538,0,80.036s13.287-9.963,29.676-9.963" transform="translate(0 4.964)" fill="#fb3"/>
        <path id="パス_247" data-name="パス 247" d="M133.005,70.073c16.389,0,29.676,4.46,29.676,9.963S149.394,90,133.005,90s-29.676-4.46-29.676-9.962,13.287-9.963,29.676-9.963" transform="translate(7.32 4.964)" fill="#fb3"/>
        <path id="パス_248" data-name="パス 248" d="M31.386,97.717c14.194-8.2,27.931-10.975,30.682-6.21s-6.526,15.271-20.719,23.465-27.931,10.975-30.682,6.21,6.525-15.27,20.719-23.465" transform="translate(0.721 6.317)" fill="#fb3"/>
        <path id="パス_249" data-name="パス 249" d="M120.871,46.052c14.194-8.2,27.931-10.974,30.682-6.21s-6.526,15.272-20.719,23.466S102.9,74.283,100.152,69.517s6.525-15.27,20.719-23.465" transform="translate(7.06 2.657)" fill="#fb3"/>
        <path id="パス_250" data-name="パス 250" d="M46.053,120.871c8.2-14.194,18.7-23.47,23.465-20.719s1.985,16.488-6.21,30.682-18.7,23.47-23.465,20.719-1.985-16.488,6.21-30.682" transform="translate(2.657 7.06)" fill="#fb3"/>
        <path id="パス_251" data-name="パス 251" d="M97.717,31.385c8.2-14.194,18.7-23.47,23.465-20.719s1.985,16.488-6.21,30.682-18.7,23.47-23.465,20.719-1.985-16.488,6.21-30.682" transform="translate(6.317 0.721)" fill="#fb3"/>
        <path id="パス_252" data-name="パス 252" d="M76.443,28.8c4.242,15.831,3.372,29.82-1.942,31.243S61.439,49.787,57.2,33.956,53.825,4.136,59.139,2.713,72.2,12.967,76.443,28.8" transform="translate(3.861 0.184)" fill="#fd3"/>
        <path id="パス_253" data-name="パス 253" d="M103.186,128.606c4.242,15.831,3.372,29.82-1.943,31.243s-13.062-10.254-17.3-26.086-3.372-29.82,1.942-31.244,13.062,10.255,17.3,26.087" transform="translate(5.756 7.254)" fill="#fd3"/>
        <path id="パス_254" data-name="パス 254" d="M51.355,37.265C62.942,48.853,69.184,61.4,65.293,65.293s-16.44-2.349-28.028-13.939S19.434,27.216,23.327,23.326s16.438,2.35,28.028,13.939" transform="translate(1.57 1.57)" fill="#fd3"/>
        <path id="パス_255" data-name="パス 255" d="M124.419,110.329c11.589,11.59,17.831,24.138,13.939,28.028s-16.44-2.349-28.028-13.939S92.5,100.28,96.391,96.39s16.44,2.35,28.028,13.939" transform="translate(6.746 6.746)" fill="#fd3"/>
        <path id="パス_256" data-name="パス 256" d="M33.956,57.2c15.831,4.242,27.51,11.989,26.087,17.3S44.63,80.685,28.8,76.443,1.289,64.454,2.713,59.139,18.124,52.955,33.956,57.2" transform="translate(0.184 3.861)" fill="#fd3"/>
        <path id="パス_257" data-name="パス 257" d="M133.764,83.94c15.831,4.242,27.51,11.989,26.086,17.3s-15.412,6.184-31.243,1.943S101.1,91.2,102.521,85.882s15.412-6.184,31.243-1.942" transform="translate(7.254 5.756)" fill="#fd3"/>
        <path id="パス_258" data-name="パス 258" d="M28.8,83.94c15.831-4.242,29.82-3.372,31.243,1.942s-10.254,13.062-26.086,17.3-29.82,3.372-31.244-1.943S12.967,88.182,28.8,83.94" transform="translate(0.184 5.756)" fill="#fd3"/>
        <path id="パス_259" data-name="パス 259" d="M128.606,57.2c15.831-4.242,29.819-3.372,31.243,1.943s-10.254,13.062-26.086,17.3-29.82,3.372-31.244-1.942,10.255-13.062,26.087-17.3" transform="translate(7.254 3.861)" fill="#fd3"/>
        <path id="パス_260" data-name="パス 260" d="M37.265,110.329C48.853,98.74,61.4,92.5,65.293,96.39s-2.349,16.441-13.939,28.028-24.138,17.831-28.028,13.939,2.35-16.438,13.939-28.028" transform="translate(1.57 6.746)" fill="#fd3"/>
        <path id="パス_261" data-name="パス 261" d="M110.33,37.265c11.589-11.589,24.138-17.831,28.028-13.939s-2.349,16.44-13.939,28.028S100.281,69.184,96.391,65.293s2.35-16.44,13.939-28.028" transform="translate(6.746 1.57)" fill="#fd3"/>
        <path id="パス_262" data-name="パス 262" d="M57.2,128.606c4.242-15.831,11.989-27.51,17.3-26.087s6.184,15.413,1.942,31.244-11.989,27.51-17.3,26.086-6.184-15.412-1.943-31.243" transform="translate(3.861 7.254)" fill="#fd3"/>
        <path id="パス_263" data-name="パス 263" d="M83.94,28.8c4.242-15.831,11.989-27.51,17.3-26.086s6.184,15.412,1.943,31.243S91.2,61.465,85.882,60.041,79.7,44.63,83.94,28.8" transform="translate(5.756 0.184)" fill="#fd3"/>
        <path id="パス_264" data-name="パス 264" d="M126.75,82.316A44.433,44.433,0,1,1,82.316,37.883,44.433,44.433,0,0,1,126.75,82.316" transform="translate(2.684 2.684)" fill="#59320c"/>
        <path id="パス_265" data-name="パス 265" d="M101.3,80.737A20.559,20.559,0,1,1,80.737,60.178,20.559,20.559,0,0,1,101.3,80.737" transform="translate(4.263 4.263)"/>
      </g>
    </g>
  </g>
</svg>
