<svg xmlns="http://www.w3.org/2000/svg" xmlns:xlink="http://www.w3.org/1999/xlink" width="25" height="25" viewBox="0 0 25 25">
  <defs>
    <clipPath id="clip-path">
      <rect id="長方形_22" data-name="長方形 22" width="25" height="25" fill="#fff"/>
    </clipPath>
  </defs>
  <g id="マスクグループ_2" data-name="マスクグループ 2" clip-path="url(#clip-path)">
    <path id="Icon_awesome-home" data-name="Icon awesome-home" d="M11.187,6.891,3.83,12.95v6.54a.638.638,0,0,0,.638.638l4.472-.012a.638.638,0,0,0,.635-.638V15.659a.638.638,0,0,1,.638-.638h2.554a.638.638,0,0,1,.638.638v3.816a.638.638,0,0,0,.638.64l4.47.012a.638.638,0,0,0,.638-.638V12.946L11.8,6.891A.486.486,0,0,0,11.187,6.891Zm11.621,4.118-3.336-2.75V2.732a.479.479,0,0,0-.479-.479H16.759a.479.479,0,0,0-.479.479v2.9L12.708,2.69a1.915,1.915,0,0,0-2.434,0L.173,11.009a.479.479,0,0,0-.064.674l1.018,1.237a.479.479,0,0,0,.675.065l9.386-7.731a.486.486,0,0,1,.611,0l9.386,7.731a.479.479,0,0,0,.674-.064l1.018-1.237a.479.479,0,0,0-.068-.676Z" transform="translate(0.696 1.119)" fill="none" stroke="#000" stroke-width="1"/>
  </g>
</svg>
