<svg xmlns="http://www.w3.org/2000/svg" xmlns:xlink="http://www.w3.org/1999/xlink" width="200" height="200" viewBox="0 0 200 200">
  <defs>
    <clipPath id="clip-path">
      <rect id="長方形_93" data-name="長方形 93" width="200" height="200" transform="translate(104 175)" fill="#fff"/>
    </clipPath>
    <clipPath id="clip-path-2">
      <rect id="長方形_299" data-name="長方形 299" width="170" height="150" fill="none"/>
    </clipPath>
  </defs>
  <g id="マスクグループ_175" data-name="マスクグループ 175" transform="translate(-104 -175)" clip-path="url(#clip-path)">
    <g id="グループ_272" data-name="グループ 272" transform="translate(130 208)">
      <g id="グループ_271" data-name="グループ 271" transform="translate(-11 -8)" clip-path="url(#clip-path-2)">
        <path id="パス_150" data-name="パス 150" d="M145.669,66.565c-9.59,27.022-38.034,42.082-63.532,33.638s-38.394-37.2-28.8-64.219S91.366-6.1,116.864,2.347s38.4,37.2,28.806,64.219" transform="translate(7.668 0)" fill="#ffc933"/>
        <path id="パス_151" data-name="パス 151" d="M106.065,37.022c9.569,27.029-3.35,55.771-28.855,64.2S23.271,94.565,13.7,67.536s3.35-55.772,28.855-64.2S96.5,9.993,106.065,37.022" transform="translate(1.612 0.114)" fill="#ffd833"/>
        <path id="パス_152" data-name="パス 152" d="M72.212,80.508c0,18.066-16.166,32.711-36.106,32.711S0,98.574,0,80.508,16.166,47.8,36.107,47.8,72.212,62.442,72.212,80.508" transform="translate(0 5.436)" fill="#fd3"/>
        <path id="パス_153" data-name="パス 153" d="M79.871,79.246c0,9.882-11.344,17.893-25.338,17.893S29.195,89.128,29.195,79.246,40.539,61.353,54.533,61.353s25.338,8.011,25.338,17.893" transform="translate(4.463 6.977)" fill="#59320c"/>
        <path id="パス_154" data-name="パス 154" d="M84.822,80.508c0,18.066,16.166,32.711,36.106,32.711s36.107-14.646,36.107-32.711S140.869,47.8,120.928,47.8,84.822,62.442,84.822,80.508" transform="translate(12.967 5.436)" fill="#fd3"/>
        <path id="パス_155" data-name="パス 155" d="M74.307,79.246c0,9.882,11.344,17.893,25.338,17.893s25.338-8.011,25.338-17.893S113.638,61.353,99.645,61.353,74.307,69.364,74.307,79.246" transform="translate(11.359 6.977)" fill="#59320c"/>
        <path id="パス_156" data-name="パス 156" d="M88.6,123.271c-9.168,13.894-29.3,20.593-44.962,14.963s-20.929-21.457-11.76-35.351,29.3-20.593,44.961-14.963S97.766,109.378,88.6,123.271" transform="translate(4.184 9.772)" fill="#fd3"/>
        <path id="パス_157" data-name="パス 157" d="M68.527,123.271c9.168,13.894,29.3,20.593,44.962,14.963s20.929-21.457,11.76-35.351-29.3-20.593-44.961-14.963-20.929,21.457-11.762,35.351" transform="translate(9.787 9.772)" fill="#fd3"/>
        <path id="パス_158" data-name="パス 158" d="M82.641,106.016c-5.374,7.511-17.172,11.133-26.352,8.089s-12.267-11.6-6.893-19.112S66.566,83.861,75.748,86.9s12.267,11.6,6.893,19.112" transform="translate(7.147 9.761)" fill="#59320c"/>
        <path id="パス_159" data-name="パス 159" d="M70.876,106.016c5.374,7.511,17.172,11.133,26.352,8.089s12.267-11.6,6.893-19.112S86.951,83.861,77.769,86.9,65.5,98.5,70.876,106.016" transform="translate(10.431 9.761)" fill="#59320c"/>
        <path id="パス_160" data-name="パス 160" d="M92.123,86.549c0,8.647-7.256,15.657-16.207,15.657S59.709,95.2,59.709,86.549s7.256-15.657,16.207-15.657S92.123,77.9,92.123,86.549" transform="translate(9.128 8.062)" fill="#fff"/>
        <path id="パス_161" data-name="パス 161" d="M88.691,86.708a12.742,12.742,0,1,1-12.735-12.3,12.524,12.524,0,0,1,12.735,12.3" transform="translate(9.665 8.462)" fill="#fd3"/>
      </g>
    </g>
  </g>
</svg>
