<svg xmlns="http://www.w3.org/2000/svg" xmlns:xlink="http://www.w3.org/1999/xlink" width="25" height="25" viewBox="0 0 25 25">
  <defs>
    <clipPath id="clip-path">
      <rect id="長方形_590" data-name="長方形 590" width="25" height="25" transform="translate(200 0.909)" fill="#fff" stroke="#707070" stroke-width="1"/>
    </clipPath>
    <clipPath id="clip-path-2">
      <rect id="長方形_589" data-name="長方形 589" width="25" height="25" fill="none"/>
    </clipPath>
  </defs>
  <g id="マスクグループ_369" data-name="マスクグループ 369" transform="translate(-200 -0.909)" clip-path="url(#clip-path)">
    <g id="グループ_636" data-name="グループ 636" transform="translate(200 0.909)">
      <g id="グループ_635" data-name="グループ 635" clip-path="url(#clip-path-2)">
        <path id="パス_1397" data-name="パス 1397" d="M56.092,21.708l-1.415-.072-.5-1.5a.273.273,0,0,0-.53,0l-.5,1.5-1.415.072a.291.291,0,0,0-.256.221.345.345,0,0,0,.093.349l1.106,1L52.3,24.817a.343.343,0,0,0,.106.344.256.256,0,0,0,.322.008l1.182-.88,1.182.88a.257.257,0,0,0,.322-.008.343.343,0,0,0,.106-.344l-.376-1.542,1.107-1a.346.346,0,0,0,.093-.349.291.291,0,0,0-.257-.221" transform="translate(-41.415 -15.535)"/>
        <path id="パス_1398" data-name="パス 1398" d="M20.606,1.595V0H4.528v1.6H0V7.376a5.644,5.644,0,0,0,.585,2.4h0a7.939,7.939,0,0,0,2.8,3.152l.02.013-.019-.013a9.519,9.519,0,0,0,4.741,1.514l1.7,2.325h0a2.852,2.852,0,0,1,.543,1.683V19.93L6.473,21.4V25H18.661V21.4L14.77,19.93V18.454a2.852,2.852,0,0,1,.543-1.683l1.705-2.338A9.178,9.178,0,0,0,22.791,12h0A7.634,7.634,0,0,0,24.414,9.78h0A5.641,5.641,0,0,0,25,7.376V1.595ZM3.221,10.645A5.921,5.921,0,0,1,1.964,8.94a3.719,3.719,0,0,1-.4-1.564V3.365H4.753V6.628a8.483,8.483,0,0,0,1.6,4.991l.67.918a7.455,7.455,0,0,1-3.8-1.892m10.987,5.1a4.611,4.611,0,0,0-.87,2.712v2.641l3.89,1.468v.818H7.905v-.818l3.89-1.468V18.454a4.6,4.6,0,0,0-.87-2.711l-3.64-4.991A7,7,0,0,1,5.96,6.628V1.616H19.174V6.628a7,7,0,0,1-1.325,4.123Zm9.226-8.366a3.716,3.716,0,0,1-.4,1.564A6.255,6.255,0,0,1,20.825,11.4a7.7,7.7,0,0,1-2.692,1.1l.648-.888a8.479,8.479,0,0,0,1.6-4.991V3.365h3.053Z" transform="translate(0 0.001)"/>
      </g>
    </g>
  </g>
</svg>
