<svg xmlns="http://www.w3.org/2000/svg" xmlns:xlink="http://www.w3.org/1999/xlink" width="170" height="170" viewBox="0 0 170 170">
  <defs>
    <clipPath id="clip-path">
      <rect id="長方形_294" data-name="長方形 294" width="170" height="170" fill="none"/>
    </clipPath>
  </defs>
  <g id="グループ_263" data-name="グループ 263" transform="translate(19.3 17)">
    <g id="グループ_262" data-name="グループ 262" transform="translate(-19.3 -17)" clip-path="url(#clip-path)">
      <path id="パス_83" data-name="パス 83" d="M109.155,112.08c0,32.312-16.014,40.817-35.769,40.817s-35.768-8.505-35.768-40.817S73.386,53.574,73.386,53.574s35.769,26.194,35.769,58.506" transform="translate(11.614 17.103)" fill="#8d6be8"/>
      <path id="パス_84" data-name="パス 84" d="M88.565,92.05c0,17.262-8.555,21.807-19.109,21.807s-19.11-4.545-19.11-21.807,19.11-31.257,19.11-31.257S88.565,74.788,88.565,92.05" transform="translate(15.544 19.408)" fill="#5a47c6"/>
      <path id="パス_85" data-name="パス 85" d="M17.31,64.221c-20.3-25-13.256-41.811,2.031-54.424S52.365-6.458,72.667,18.547s9.083,68.11,9.083,68.11S37.611,89.224,17.31,64.221" transform="translate(1.472 0)" fill="#8d6be8"/>
      <path id="パス_86" data-name="パス 86" d="M16.16,81.91c-21.737,23.238-18.619,35.2-7.716,42.418s25.464,6.944,47.2-16.293S75.26,52.9,75.26,52.9,37.9,58.672,16.16,81.91" transform="translate(0 16.887)" fill="#8d6be8"/>
      <path id="パス_87" data-name="パス 87" d="M34.935,64.006c-12.729-15.675-8.311-26.212,1.273-34.12s20.7-10.191,33.433,5.485,5.693,42.7,5.693,42.7-27.671,1.608-40.4-14.067" transform="translate(8.358 7.58)" fill="#5a47c6"/>
      <path id="パス_88" data-name="パス 88" d="M36.247,68.247c-14.026,14.994-12.014,22.716-4.98,27.37S47.7,100.1,61.725,85.1,74.382,49.526,74.382,49.526s-24.11,3.727-38.135,18.721" transform="translate(7.972 15.811)" fill="#5a47c6"/>
      <path id="パス_89" data-name="パス 89" d="M131.477,64.221c20.3-25,13.255-41.811-2.032-54.424S96.421-6.458,76.118,18.547s-9.083,68.11-9.083,68.11,44.139,2.567,64.441-22.436" transform="translate(19.742 0)" fill="#8d6be8"/>
      <path id="パス_90" data-name="パス 90" d="M131.5,81.91c21.737,23.238,18.619,35.2,7.716,42.418s-25.464,6.944-47.2-16.293S72.4,52.9,72.4,52.9s37.363,5.776,59.1,29.014" transform="translate(22.336 16.887)" fill="#8d6be8"/>
      <path id="パス_91" data-name="パス 91" d="M106.8,64.006c12.729-15.675,8.31-26.212-1.273-34.12S84.825,19.7,72.1,35.372s-5.693,42.7-5.693,42.7,27.671,1.608,40.4-14.067" transform="translate(19.903 7.58)" fill="#5a47c6"/>
      <path id="パス_92" data-name="パス 92" d="M105.113,68.247c14.026,14.994,12.014,22.716,4.98,27.37S93.66,100.1,79.634,85.1,66.978,49.526,66.978,49.526s24.11,3.727,38.135,18.721" transform="translate(20.667 15.811)" fill="#5a47c6"/>
      <path id="パス_93" data-name="パス 93" d="M81.217,63.634A13.164,13.164,0,1,1,68.053,50.365,13.216,13.216,0,0,1,81.217,63.634" transform="translate(16.947 16.079)" fill="#fff"/>
      <path id="パス_94" data-name="パス 94" d="M77.731,63.306A10.343,10.343,0,1,1,67.388,52.88,10.384,10.384,0,0,1,77.731,63.306" transform="translate(17.612 16.881)" fill="#fd3"/>
    </g>
  </g>
</svg>
