<svg xmlns="http://www.w3.org/2000/svg" xmlns:xlink="http://www.w3.org/1999/xlink" width="100" height="55" viewBox="0 0 100 55">
  <defs>
    <clipPath id="clip-path">
      <rect id="長方形_189" data-name="長方形 189" width="100" height="55" transform="translate(13 48)" fill="#fff" stroke="#707070" stroke-width="1"/>
    </clipPath>
    <clipPath id="clip-path-2">
      <rect id="長方形_62" data-name="長方形 62" width="100" height="53.198" transform="translate(15 6)" fill="#fff"/>
    </clipPath>
  </defs>
  <g id="マスクグループ_93" data-name="マスクグループ 93" transform="translate(-13 -48)" clip-path="url(#clip-path)">
    <g id="マスクグループ_17" data-name="マスクグループ 17" transform="translate(-2 43)" clip-path="url(#clip-path-2)">
      <g id="グループ_65" data-name="グループ 65" transform="translate(18.077 9.04)">
        <path id="パス_33" data-name="パス 33" d="M333.724,42.8V86.735a2.105,2.105,0,0,0,2.118,2.092h90.552" transform="translate(-333.724 -42.8)" fill="none" stroke="#ecb5a3" stroke-linecap="round" stroke-linejoin="round" stroke-width="2"/>
        <g id="グループ_64" data-name="グループ 64" transform="translate(12.114 13.54)">
          <path id="パス_34" data-name="パス 34" d="M405.336,96.472V94.665a1.458,1.458,0,0,0-.439-1.045,1.494,1.494,0,0,0-1.056-.431h0l-4.926.007a.609.609,0,0,1-.338.131,3.086,3.086,0,0,0-1.824,1.954.6.6,0,0,1-.122.347l0,2.243H404.3a1.486,1.486,0,0,0,.6-.356A1.456,1.456,0,0,0,405.336,96.472Z" transform="translate(-369.547 -75.71)" fill="none"/>
          <ellipse id="楕円形_4" data-name="楕円形 4" cx="0.587" cy="0.58" rx="0.587" ry="0.58" transform="translate(1.558 11.344)" fill="none"/>
          <path id="パス_35" data-name="パス 35" d="M378.875,93.068l-3.943,0a.577.577,0,0,1-.1.026A3.086,3.086,0,0,0,373,95.046a.593.593,0,0,1-.111.331l.014,2.448h7.462v-3.28A1.487,1.487,0,0,0,378.875,93.068Z" transform="translate(-360.602 -75.663)" fill="none"/>
          <path id="パス_36" data-name="パス 36" d="M356.845,88.816a.775.775,0,0,0-.775-.773h0a.774.774,0,0,0-.779.766l-.035,7.085h1.558Z" transform="translate(-353.953 -73.732)" fill="#e79ca3"/>
          <path id="パス_37" data-name="パス 37" d="M472.626,91.192a.467.467,0,0,0,.02-.08A2.55,2.55,0,0,1,474.581,89h1.447a.616.616,0,1,0,0-1.231h-1.445c-.011,0-.021,0-.032,0l-.038,0h-1.887V83.641a.623.623,0,0,0-1.246,0v4.124h-3.448a.616.616,0,1,0,0,1.231h3.448v4.968h1.246Z" transform="translate(-396.19 -71.803)" fill="#e79ca3"/>
          <path id="パス_38" data-name="パス 38" d="M372.123,93.5a.593.593,0,0,0,.111-.331,3.086,3.086,0,0,1,1.824-1.954.577.577,0,0,0,.1-.026l3.943,0a1.487,1.487,0,0,1,1.494,1.476v3.28h1.246v-3.28a2.726,2.726,0,0,0-2.74-2.707l-6,0L372.1,88.8a.619.619,0,0,0-.623-.612h0a.619.619,0,0,0-.62.619l.04,7.143h1.246Z" transform="translate(-359.833 -73.787)" fill="#e79ca3"/>
          <path id="パス_39" data-name="パス 39" d="M444.506,96.682h.622A.986.986,0,0,0,444.506,96.682Z" transform="translate(-387.595 -77.034)" fill="#ecb5a3"/>
          <path id="パス_40" data-name="パス 40" d="M429.113,81.908a1.714,1.714,0,0,1,2.3-.685l6.687,3.532a1,1,0,0,0,1.34-.4.972.972,0,0,0-.406-1.323L432.346,79.5a3.709,3.709,0,0,0-4.975,1.484l-4.824,8.856c-.017.03-.024.063-.04.094h2.236Z" transform="translate(-379.302 -70.282)" fill="#e79ca3"/>
          <path id="パス_41" data-name="パス 41" d="M437.094,72.987a1,1,0,0,0,1.34-.4l2.691-4.953a1.717,1.717,0,0,1,2.295-.689l5.695,2.979a1.673,1.673,0,0,1,.831,1,1.647,1.647,0,0,1-.13,1.285l-4.824,8.856a1.715,1.715,0,0,1-2.3.686L436,78.217a1,1,0,0,0-1.339.4.972.972,0,0,0,.406,1.323l6.688,3.532a3.711,3.711,0,0,0,4.975-1.483l4.824-8.856a3.574,3.574,0,0,0,.28-2.781,3.62,3.62,0,0,0-1.8-2.156l-5.694-2.979a3.71,3.71,0,0,0-4.965,1.493l-2.691,4.953A.971.971,0,0,0,437.094,72.987Z" transform="translate(-383.841 -64.795)" fill="#e79ca3"/>
          <path id="パス_42" data-name="パス 42" d="M355.312,84.962a2.119,2.119,0,1,0-2.145-2.119A2.135,2.135,0,0,0,355.312,84.962Zm0-2.7a.58.58,0,1,1-.587.58A.585.585,0,0,1,355.312,82.263Z" transform="translate(-353.167 -70.919)" fill="#e79ca3"/>
          <path id="パス_43" data-name="パス 43" d="M395.873,94.86a.6.6,0,0,0,.122-.347,3.086,3.086,0,0,1,1.824-1.954.61.61,0,0,0,.338-.131l4.926-.007h0a1.494,1.494,0,0,1,1.056.431,1.458,1.458,0,0,1,.439,1.045V95.7a1.456,1.456,0,0,1-.437,1.044,1.486,1.486,0,0,1-.6.356h1.881a2.657,2.657,0,0,0,.4-1.4V93.9a2.676,2.676,0,0,0-.805-1.915,2.74,2.74,0,0,0-1.936-.791h0l-5.717.008a2.73,2.73,0,0,0-2.737,2.7l0,3.2h1.247Z" transform="translate(-368.793 -74.941)" fill="#e79ca3"/>
          <path id="パス_44" data-name="パス 44" d="M396.625,100.873h1.928c.035,0,.07-.012.1-.013a.557.557,0,0,1,.1.013h5.089a1.514,1.514,0,0,0,.456-.077h-7.673Z" transform="translate(-369.547 -78.635)" fill="#a65e4c"/>
          <path id="パス_45" data-name="パス 45" d="M355.974,108.293h0a.774.774,0,0,0,.779-.766l.033-6.731h-1.558l-.033,6.723A.774.774,0,0,0,355.974,108.293Z" transform="translate(-353.933 -78.635)" fill="#a65e4c"/>
          <path id="パス_46" data-name="パス 46" d="M474.466,108.173a.619.619,0,0,0,.623-.616V100.8h-1.246v6.762A.62.62,0,0,0,474.466,108.173Z" transform="translate(-398.653 -78.635)" fill="#a65e4c"/>
          <path id="パス_47" data-name="パス 47" d="M384.891,107.364a.623.623,0,0,0,1.246,0V100.8h-1.246Z" transform="translate(-365.124 -78.635)" fill="#a65e4c"/>
          <path id="パス_48" data-name="パス 48" d="M371.574,107.94h0a.619.619,0,0,0,.619-.619l-.036-6.525h-1.246l.036,6.532A.62.62,0,0,0,371.574,107.94Z" transform="translate(-359.857 -78.635)" fill="#a65e4c"/>
          <path id="パス_49" data-name="パス 49" d="M422.023,99.4a3.619,3.619,0,0,0,1.8,2.157l5.694,2.98a3.71,3.71,0,0,0,4.965-1.493l2.691-4.954a.972.972,0,0,0-.4-1.324.946.946,0,0,0-.174-.052h-.622a.975.975,0,0,0-.544.451l-2.691,4.954a1.713,1.713,0,0,1-2.295.69l-5.694-2.98a1.677,1.677,0,0,1-.831-1,1.65,1.65,0,0,1,.13-1.285l.454-.834h-2.236A3.563,3.563,0,0,0,422.023,99.4Z" transform="translate(-379.061 -77.065)" fill="#a65e4c"/>
          <path id="パス_50" data-name="パス 50" d="M395.423,107.433a2.737,2.737,0,0,0,1.933.79h.015l5.7-.029a2.731,2.731,0,0,0,2.727-2.709v-1.346a.623.623,0,0,0-1.246,0v1.346a1.489,1.489,0,0,1-1.487,1.477l-5.7.029h-.007a1.492,1.492,0,0,1-1.055-.431,1.456,1.456,0,0,1-.44-1.048V104.2a.6.6,0,0,0,.044-.211c0-.526,1.355-1.789,1.993-1.882h5.185a2.68,2.68,0,0,0,2.337-1.308h-1.881a1.515,1.515,0,0,1-.456.077H398a.551.551,0,0,0-.1-.013c-.034,0-.069.009-.1.013h-1.928V100.8h-1.247l-.005,4.715A2.67,2.67,0,0,0,395.423,107.433Z" transform="translate(-368.79 -78.635)" fill="#a65e4c"/>
        </g>
      </g>
    </g>
  </g>
</svg>
